<?xml version="1.0" encoding="UTF-8"?>
<svg version="1.1" xmlns="http://www.w3.org/2000/svg" width="500" height="500">
<path d="M0 0 C165 0 330 0 500 0 C500 165 500 330 500 500 C335 500 170 500 0 500 C0 335 0 170 0 0 Z " fill="#FEFDF8" transform="translate(0,0)"/>
<path d="M0 0 C7.92267989 5.71838589 11.93953536 12.82840885 14.3359375 22.23828125 C16.45663394 36.06282124 13.98994578 49.51683873 10.75 62.9375 C10.56856445 63.6991748 10.38712891 64.46084961 10.20019531 65.24560547 C7.25636423 77.43113577 7.25636423 77.43113577 4.75 79.9375 C3.76 79.9375 2.77 79.9375 1.75 79.9375 C1.44251056 72.13637897 1.4824582 65.17423006 3.99609375 57.73046875 C7.43538523 44.98905214 8.49125234 25.98665406 2.9609375 13.90625 C0.51811095 9.93468683 -1.70473994 7.45258669 -6.25 5.9375 C-16.12148398 4.64287915 -24.32080282 9.27836059 -32.0546875 15.01953125 C-38.22476123 20.35347349 -43.25488872 26.52011003 -48.25 32.9375 C-49.05308594 33.91332031 -49.85617188 34.88914063 -50.68359375 35.89453125 C-63.2152272 51.43688475 -76.49999136 73.10133826 -76.5625 93.5625 C-76.57925781 94.83351563 -76.59601563 96.10453125 -76.61328125 97.4140625 C-76.22612947 101.16901843 -75.60715633 103.01759915 -73.25 105.9375 C-71.36905034 107.1298195 -71.36905034 107.1298195 -69.1875 107.6875 C-68.49527344 107.90921875 -67.80304688 108.1309375 -67.08984375 108.359375 C-58.3202597 110.14465483 -49.28976184 110.20137562 -40.37304688 110.45507812 C-27.77087193 110.9237906 -16.3619102 113.64325354 -6.74609375 122.15625 C-5.11603477 124.09699907 -4.64666926 125.45967561 -4.25 127.9375 C3.22771026 123.49950936 9.55483719 117.88923417 16.05078125 112.16796875 C19.07521993 109.50797609 22.16553635 106.95228189 25.3125 104.4375 C30.50881937 100.25070653 35.34938447 95.72473802 40.15649414 91.1015625 C44.53857364 86.9375 44.53857364 86.9375 46.75 86.9375 C46.95625 86.1125 47.1625 85.2875 47.375 84.4375 C49.74733829 78.39882071 54.00593619 72.1434891 59.75 68.9375 C62.88302544 68.33609658 65.62471231 68.27062125 68.75 68.9375 C71.8125 71.25 71.8125 71.25 73.75 73.9375 C73.75 74.9275 73.75 75.9175 73.75 76.9375 C67.88015873 75.98194444 67.88015873 75.98194444 65.1875 75.0625 C62.51937144 74.65436487 62.51937144 74.65436487 60.1875 77 C55.21949211 82.98708643 51.5920044 88.02455389 51.75 95.9375 C52.02674561 95.42775635 52.30349121 94.9180127 52.58862305 94.39282227 C53.85424506 92.08520219 55.14535695 89.7928666 56.4375 87.5 C57.09008789 86.29633789 57.09008789 86.29633789 57.75585938 85.06835938 C61.10177922 79.1944112 61.10177922 79.1944112 64.51953125 77.83984375 C66.75 77.9375 66.75 77.9375 67.75 78.9375 C67.9090006 80.83078493 68.02697833 82.72758049 68.125 84.625 C68.49444724 89.63041421 69.0184879 94.2059879 72.75 97.9375 C76.44778753 98.36747529 78.42280405 98.10791456 81.75 96.375 C84.68340577 93.99160781 86.94034313 91.56647162 89.3203125 88.65625 C91.31090026 86.26319368 93.54961997 84.13788003 95.75 81.9375 C96.89996172 80.58683741 98.04548829 79.23239111 99.1875 77.875 C105.77282507 70.38330761 105.77282507 70.38330761 111.01953125 69.59765625 C116.99830254 69.3561873 116.99830254 69.3561873 119.5078125 71.296875 C121.2099872 73.54503026 120.97258371 75.19230095 120.75 77.9375 C119.43 77.9375 118.11 77.9375 116.75 77.9375 C116.09 76.9475 115.43 75.9575 114.75 74.9375 C109.79259417 75.39865403 107.39379055 76.57785825 103.75 79.9375 C101.52320212 82.99500585 101.52320212 82.99500585 99.5625 86.375 C98.88832031 87.48746094 98.21414063 88.59992188 97.51953125 89.74609375 C95.09011038 94.12763204 93.75 96.8875193 93.75 101.9375 C99.85888897 97.21018537 104.28248754 91.80370042 108.671875 85.51171875 C110.64382486 83.06902147 111.85415498 82.01365862 114.75 80.9375 C117.31761548 83.55228952 117.7456345 84.88278576 118.04296875 88.609375 C118.02316751 89.96906035 117.98759202 91.3285934 117.9375 92.6875 C117.92396484 93.38488281 117.91042969 94.08226562 117.89648438 94.80078125 C117.8612945 96.51335541 117.80749155 98.22552941 117.75 99.9375 C118.28367187 99.51339844 118.81734375 99.08929688 119.3671875 98.65234375 C120.11226562 98.06582031 120.85734375 97.47929687 121.625 96.875 C122.44355469 96.23046875 123.26210938 95.5859375 124.10546875 94.921875 C126.64668856 93.01502173 129.25967856 91.33165403 131.9375 89.625 C136.51687319 86.48505999 138.64448209 83.19805818 141.265625 78.3828125 C143.99438838 73.88753389 147.64167724 69.77059945 152.86328125 68.37109375 C156.43738252 68.16243624 158.68364111 68.89879065 161.75 70.6875 C163.75 72.9375 163.75 72.9375 163.75 76.9375 C158.875 76.0625 158.875 76.0625 157.75 74.9375 C155.46658257 74.26595316 155.46658257 74.26595316 152.75 74.9375 C145.92529871 80.67724878 142.79653561 88.31653339 141.75 96.9375 C142.18868408 96.18073975 142.18868408 96.18073975 142.63623047 95.40869141 C143.96261238 93.12474699 145.29374346 90.84360626 146.625 88.5625 C147.08519531 87.7684375 147.54539062 86.974375 148.01953125 86.15625 C148.46425781 85.39570313 148.90898437 84.63515625 149.3671875 83.8515625 C149.77565918 83.1498291 150.18413086 82.4480957 150.60498047 81.72509766 C151.75 79.9375 151.75 79.9375 153.75 77.9375 C157.28571429 78.47321429 157.28571429 78.47321429 158.75 79.9375 C158.88255476 81.83156018 158.98083609 83.72806412 159.0625 85.625 C159.48200111 90.95774895 159.87000231 94.16236711 163.75 97.9375 C166.57340774 98.94059237 166.57340774 98.94059237 169.75 97.9375 C174.11697553 95.3521179 178.13404121 92.34332534 180.75 87.9375 C181.54207889 84.44483494 181.54207889 84.44483494 181.9375 80.6875 C182.09605469 79.42421875 182.25460937 78.1609375 182.41796875 76.859375 C182.58232422 75.41304687 182.58232422 75.41304687 182.75 73.9375 C184.6875 73.375 184.6875 73.375 186.75 72.9375 C188.69090826 74.87840826 188.14919435 78.41043902 188.3125 81 C188.43818359 82.93552734 188.43818359 82.93552734 188.56640625 84.91015625 C188.62699219 85.90917969 188.68757813 86.90820312 188.75 87.9375 C189.23210937 87.44765625 189.71421875 86.9578125 190.2109375 86.453125 C193.90105081 84.25041121 197.16279251 84.5744206 201.375 84.6875 C202.53902344 84.69523437 202.53902344 84.69523437 203.7265625 84.703125 C209.43995536 84.78247768 209.43995536 84.78247768 211.75 85.9375 C211.42 87.2575 211.09 88.5775 210.75 89.9375 C209.58082031 89.916875 208.41164063 89.89625 207.20703125 89.875 C199.02419989 89.64758842 199.02419989 89.64758842 191.578125 92.36328125 C188.41641095 97.0765772 187.8095928 102.86671688 187.109375 108.3984375 C186.75 110.9375 186.75 110.9375 185.75 112.9375 C184.1 112.6075 182.45 112.2775 180.75 111.9375 C180.75 107.3175 180.75 102.6975 180.75 97.9375 C179.1103125 99.1440625 179.1103125 99.1440625 177.4375 100.375 C172.44137975 104.05139037 167.83518092 104.66729242 161.75 103.9375 C156.39290985 101.1994317 154.80038058 96.29827156 152.75 90.9375 C151.91855469 92.31035156 151.91855469 92.31035156 151.0703125 93.7109375 C150.33869002 94.91154875 149.60691102 96.11206463 148.875 97.3125 C148.51019531 97.91578125 148.14539063 98.5190625 147.76953125 99.140625 C146.24053678 101.64261595 144.83128646 103.85621354 142.75 105.9375 C139.75 106.1875 139.75 106.1875 136.75 105.9375 C134.35236815 103.53986815 134.40719414 102.60476502 134.125 99.3125 C134.05023438 98.49523437 133.97546875 97.67796875 133.8984375 96.8359375 C133.82496094 95.89621094 133.82496094 95.89621094 133.75 94.9375 C132.18435354 96.16265636 130.62263601 97.39283419 129.0625 98.625 C127.75732422 99.65173828 127.75732422 99.65173828 126.42578125 100.69921875 C125.54277344 101.43785156 124.65976562 102.17648438 123.75 102.9375 C122.82832031 103.67226562 121.90664063 104.40703125 120.95703125 105.1640625 C117.90708555 108.99673763 118.09265583 111.86413151 118.125 116.625 C118.08198184 118.33484836 118.03100776 120.04451247 117.97265625 121.75390625 C117.94316895 122.61902832 117.91368164 123.48415039 117.88330078 124.37548828 C116.91822237 142.92408329 111.88894331 162.74655187 97.8125 175.625 C93.68901977 177.39220581 90.16186276 177.89624734 85.75 176.9375 C82.46824682 174.40781526 81.05756223 172.86018669 79.75 168.9375 C78.08705578 151.27212535 87.92719862 135.25564874 98.43359375 121.734375 C101.49731257 118.03517993 104.69984296 114.48532229 108 110.99609375 C111.2550036 107.16710514 110.85683664 103.58269428 110.8125 98.75 C110.80347656 97.47769531 110.79445313 96.20539063 110.78515625 94.89453125 C110.76775391 93.43080078 110.76775391 93.43080078 110.75 91.9375 C110.02296875 92.91589844 110.02296875 92.91589844 109.28125 93.9140625 C105.0891094 99.37996889 100.96991104 104.70741744 94.75 107.9375 C91.9375 108.25 91.9375 108.25 89.75 106.9375 C87.9375 103.375 87.9375 103.375 86.75 99.9375 C85.945625 100.5975 85.14125 101.2575 84.3125 101.9375 C80.91111853 104.16765106 78.03256032 104.64661762 73.99609375 104.44921875 C69.90302933 103.5167119 67.32976734 101.16046137 64.75 97.9375 C63.44677195 95.61395106 62.61340204 93.47691777 61.75 90.9375 C61.27949219 91.76894531 60.80898437 92.60039062 60.32421875 93.45703125 C59.70160156 94.54371094 59.07898438 95.63039063 58.4375 96.75 C57.82261719 97.82894531 57.20773438 98.90789062 56.57421875 100.01953125 C53.93245478 104.24522223 53.93245478 104.24522223 51.75 105.9375 C48.6875 106.25 48.6875 106.25 45.75 105.9375 C42.98776722 103.17526722 43.17143709 100.73043383 42.75 96.9375 C42.33862793 97.33428955 41.92725586 97.7310791 41.50341797 98.13989258 C33.3609148 105.96297124 25.13623235 113.42327156 16.16796875 120.28515625 C10.51876919 124.61899049 5.14997785 129.29997749 -0.25 133.9375 C-0.09144531 134.48535156 0.06710938 135.03320312 0.23046875 135.59765625 C2.83320744 147.31976508 -0.48686673 158.88358657 -6.6875 168.875 C-9.32857382 172.7683071 -12.11947953 176.42752251 -15.25 179.9375 C-17.23 178.9475 -17.23 178.9475 -19.25 177.9375 C-18.18280795 174.52248544 -16.66171525 172.11381518 -14.4375 169.375 C-7.00801654 159.61469819 -5.42901275 149.84998512 -5.25 137.9375 C-17.56074995 147.04621145 -29.81039991 157.87387984 -39.4375 169.8125 C-42.25408892 173.22630261 -45.3091628 174.9670814 -49.25 176.9375 C-44.51935974 160.46516802 -27.29334415 147.11716122 -14.25 136.9375 C-12.58220399 135.60557957 -10.91521514 134.27264571 -9.25 132.9375 C-9.73956405 128.69461157 -12.08081337 125.63529732 -15.25 122.9375 C-27.37969643 116.41752356 -40.7930865 116.42728371 -54.18725586 115.98388672 C-72.68569006 115.34409413 -72.68569006 115.34409413 -78.78320312 109.45727539 C-84.24341121 103.30504859 -83.67401677 96.66627586 -83.37304688 88.89794922 C-82.01338818 67.23513316 -67.46456887 44.42708334 -54.25 27.9375 C-53.11884766 26.4834375 -53.11884766 26.4834375 -51.96484375 25 C-41.66859019 12.00164217 -18.42659648 -10.80790755 0 0 Z " fill="#1B2E28" transform="translate(188.25,139.0625)"/>
<path d="M0 0 C2.48128999 2.21896991 4.76286092 4.53850599 7 7 C7.78375 7.763125 8.5675 8.52625 9.375 9.3125 C10.24125 10.199375 11.1075 11.08625 12 12 C12.64582031 12.6496875 13.29164063 13.299375 13.95703125 13.96875 C25.61990873 26.22396277 38.02751593 44.81121025 40 62 C39.34208346 63.33767263 38.67462077 64.67067346 38 66 C37.6456169 68.62162955 37.49837103 71.21531466 37.34375 73.85546875 C37.2303125 74.56316406 37.116875 75.27085937 37 76 C36.01 76.495 36.01 76.495 35 77 C34.85304688 76.175 34.70609375 75.35 34.5546875 74.5 C28.92834025 45.52754521 12.70207541 19.05422581 -11.53735352 1.79980469 C-23.18730452 -6.04421706 -36.42012228 -12.38219474 -50 -16 C-51.11503906 -16.29777344 -52.23007812 -16.59554687 -53.37890625 -16.90234375 C-71.089091 -20.90975782 -90.44060948 -20.56313109 -108 -16 C-108.96679688 -15.7512915 -108.96679688 -15.7512915 -109.953125 -15.49755859 C-117.27383124 -13.68578853 -117.27383124 -13.68578853 -124.234375 -10.87109375 C-126 -10 -126 -10 -128.5 -10.125 C-131.49192031 -11.17217211 -132.84402265 -12.72526119 -135 -15 C-92.13628733 -39.03341115 -37.51696044 -29.55003834 0 0 Z " fill="#1A2D27" transform="translate(327,149)"/>
<path d="M0 0 C0.66 0 1.32 0 2 0 C2.20737934 7.13236805 1.45652301 13.78774413 0.25 20.8125 C0.06808105 21.87476807 -0.11383789 22.93703613 -0.30126953 24.03149414 C-2.48003087 36.27222273 -5.09316391 48.22081062 -15.0625 56.5625 C-18.11282034 58.05520995 -19.67918309 58.71801447 -23 58 C-26.32927141 54.37246457 -26.57698075 51.72811422 -26.40234375 46.95703125 C-24.08521252 29.9272415 -11.9817502 11.9817502 0 0 Z " fill="#F9F9F4" transform="translate(298,254)"/>
<path d="M0 0 C-2.64453958 2.70396744 -5.31814789 5.31300758 -8.1640625 7.8046875 C-34.18978443 30.73701935 -44.4452947 59.3507858 -49 93 C-51.31 92.67 -53.62 92.34 -56 92 C-57.22662616 66.64972607 -47.29609068 40.2522976 -31 21 C-30.13181641 19.79150391 -30.13181641 19.79150391 -29.24609375 18.55859375 C-22.64490987 9.53192268 -11.75717384 -0.53441699 0 0 Z " fill="#1A2D27" transform="translate(179,150)"/>
<path d="M0 0 C3.465 1.485 3.465 1.485 7 3 C8.36713024 22.13982335 -1.21387049 42.10374902 -11 58 C-12.98 57.01 -14.96 56.02 -17 55 C-16.38922755 50.67637396 -14.8048673 47.45777423 -12.75 43.625 C-5.77010608 30.15660244 -1.26019994 15.12239926 0 0 Z " fill="#1A2D27" transform="translate(364,255)"/>
<path d="M0 0 C2.31 0 4.62 0 7 0 C8.27386421 3.45763144 9.17827605 6.81940335 9.8125 10.4375 C10.69042926 15.05189617 12.01478716 19.42798078 13.5 23.875 C13.71374268 24.51751709 13.92748535 25.16003418 14.14770508 25.82202148 C15.23603124 29.01318672 16.48368641 31.99481741 18 35 C18.40473257 38.23786057 18.29315808 39.54804796 16.5 42.3125 C16.005 42.869375 15.51 43.42625 15 44 C12 43 12 43 10.98852539 41.42797852 C9.99614325 39.14541801 9.00953148 36.86438736 8.0625 34.5625 C7.71058594 33.7166333 7.35867187 32.8707666 6.99609375 31.99926758 C2.97089213 21.95396697 -0.41130743 10.91678461 0 0 Z " fill="#1C2F29" transform="translate(124,260)"/>
<path d="M0 0 C0 5.61 0 11.22 0 17 C-0.99 16.67 -1.98 16.34 -3 16 C-3 14.35 -3 12.7 -3 11 C-4.98 10.34 -6.96 9.68 -9 9 C-9.33 9.99 -9.66 10.98 -10 12 C-10.99 11.67 -11.98 11.34 -13 11 C-11.40559179 9.15730683 -9.80058539 7.32621907 -8.1875 5.5 C-7.73568359 4.97535156 -7.28386719 4.45070313 -6.81835938 3.91015625 C-3.33984375 0 -3.33984375 0 0 0 Z " fill="#4D5C56" transform="translate(209,351)"/>
<path d="M0 0 C0.66 0 1.32 0 2 0 C2.66 4.95 3.32 9.9 4 15 C-1.42418914 13.64395272 -2.561115 11.29860625 -6 7 C-6 9.97 -6 12.94 -6 16 C-6.66 16 -7.32 16 -8 16 C-9.26305335 10.92523206 -10.27036084 6.27203646 -10 1 C-9.01 1 -8.02 1 -7 1 C-5.17578125 2.96875 -5.17578125 2.96875 -3.3125 5.5 C-2.68988281 6.3353125 -2.06726563 7.170625 -1.42578125 8.03125 C-0.95527344 8.6809375 -0.48476563 9.330625 0 10 C0 6.7 0 3.4 0 0 Z " fill="#2A3C36" transform="translate(268,357)"/>
<path d="M0 0 C0 0.66 0 1.32 0 2 C-2.64738916 3.4606285 -3.89448334 4 -7 4 C-6.34 5.32 -5.68 6.64 -5 8 C-2.69 7.34 -0.38 6.68 2 6 C2 6.66 2 7.32 2 8 C-0.31 8.66 -2.62 9.32 -5 10 C-4.34 11.32 -3.68 12.64 -3 14 C-0.03 13.34 2.94 12.68 6 12 C6 12.66 6 13.32 6 14 C4.5437455 14.67119549 3.08492133 15.33681807 1.625 16 C0.40683594 16.556875 0.40683594 16.556875 -0.8359375 17.125 C-3 18 -3 18 -5 18 C-6.65 13.38 -8.3 8.76 -10 4 C-2.25 0 -2.25 0 0 0 Z " fill="#2B3D37" transform="translate(297,348)"/>
<path d="M0 0 C0 0.99 0 1.98 0 3 C-2.31 3 -4.62 3 -7 3 C-7 4.32 -7 5.64 -7 7 C-5.948125 6.649375 -4.89625 6.29875 -3.8125 5.9375 C-0.2045319 5.05029473 1.52632489 4.94737118 5 6 C5.75 8.25 5.75 8.25 6 11 C4.4375 13.3125 4.4375 13.3125 2 15 C-1.25 15.25 -1.25 15.25 -4 15 C-4 14.01 -4 13.02 -4 12 C-2.02 12 -0.04 12 2 12 C2.33 10.68 2.66 9.36 3 8 C-0.63 8.33 -4.26 8.66 -8 9 C-9.3260274 3.57534247 -9.3260274 3.57534247 -7.9375 1.125 C-5.24099753 -0.44071111 -3.05869541 -0.20391303 0 0 Z " fill="#31423D" transform="translate(323,334)"/>
<path d="M0 0 C0.66 0 1.32 0 2 0 C1.34 1.98 0.68 3.96 0 6 C2.67247634 8.34287418 2.67247634 8.34287418 6 9 C6.66 8.01 7.32 7.02 8 6 C8.66 6 9.32 6 10 6 C8.40956621 11.08938811 5.2553049 14.87456643 2 19 C1.34 18.34 0.68 17.68 0 17 C1.32 15.02 2.64 13.04 4 11 C1.69 10.34 -0.62 9.68 -3 9 C-4.32 10.32 -5.64 11.64 -7 13 C-7 9.19794574 -5.7999031 7.88843439 -3.625 4.8125 C-2.99851563 3.91144531 -2.37203125 3.01039063 -1.7265625 2.08203125 C-1.15679687 1.39496094 -0.58703125 0.70789063 0 0 Z " fill="#2F413B" transform="translate(176,334)"/>
<path d="M0 0 C3.25325952 0.77050883 4.44331296 1.84382935 6.375 4.5625 C6.625 7.8125 6.625 7.8125 6.375 10.5625 C5.715 10.5625 5.055 10.5625 4.375 10.5625 C3.715 8.2525 3.055 5.9425 2.375 3.5625 C-1.23488065 3.26642303 -1.23488065 3.26642303 -4.4375 4.75 C-5.99178206 7.12232525 -5.85037188 8.78291345 -5.625 11.5625 C-3.645 12.2225 -1.665 12.8825 0.375 13.5625 C0.045 14.2225 -0.285 14.8825 -0.625 15.5625 C-2.9375 15.8125 -2.9375 15.8125 -5.625 15.5625 C-8.06992401 13.37049916 -8.57040074 11.84762945 -9.1875 8.625 C-8.625 5.5625 -8.625 5.5625 -5.9375 2.6875 C-2.625 0.5625 -2.625 0.5625 0 0 Z " fill="#2C3E38" transform="translate(155.625,313.4375)"/>
<path d="M0 0 C3.96 0.33 7.92 0.66 12 1 C12 1.66 12 2.32 12 3 C10.02 3 8.04 3 6 3 C6.01160156 3.60328125 6.02320313 4.2065625 6.03515625 4.828125 C6.04869141 6.02695312 6.04869141 6.02695312 6.0625 7.25 C6.07410156 8.03890625 6.08570313 8.8278125 6.09765625 9.640625 C6.00385306 11.90691002 5.63241063 13.8288895 5 16 C4.34 16 3.68 16 3 16 C3.33 11.71 3.66 7.42 4 3 C2.68 2.67 1.36 2.34 0 2 C0 1.34 0 0.68 0 0 Z " fill="#3B4B45" transform="translate(229,357)"/>
<path d="M0 0 C0.66 0.66 1.32 1.32 2 2 C1.34 3.32 0.68 4.64 0 6 C2.97 8.31 5.94 10.62 9 13 C8.34 13.66 7.68 14.32 7 15 C6.40832031 14.47148437 5.81664062 13.94296875 5.20703125 13.3984375 C4.41683594 12.73070312 3.62664062 12.06296875 2.8125 11.375 C2.03519531 10.70210938 1.25789063 10.02921875 0.45703125 9.3359375 C-1.97740454 7.64194161 -1.97740454 7.64194161 -4.80078125 8.7890625 C-5.52652344 9.18867188 -6.25226563 9.58828125 -7 10 C-4.93992341 6.39486597 -2.6486859 3.19668988 0 0 Z " fill="#31423C" transform="translate(340,311)"/>
<path d="M0 0 C0.66 0 1.32 0 2 0 C2.66 4.95 3.32 9.9 4 15 C-0.29425875 13.92643531 -0.74740471 13.4915227 -3 10 C-2.67 9.34 -2.34 8.68 -2 8 C-1.34 8.66 -0.68 9.32 0 10 C0 6.7 0 3.4 0 0 Z " fill="#30413B" transform="translate(268,357)"/>
<path d="M0 0 C0.99 0.33 1.98 0.66 3 1 C1.68 2.32 0.36 3.64 -1 5 C0.32 5.99 1.64 6.98 3 8 C0 9 0 9 -2.1875 8.0625 C-2.785625 7.711875 -3.38375 7.36125 -4 7 C-4.33 7.99 -4.66 8.98 -5 10 C-5.99 9.67 -6.98 9.34 -8 9 C-5.36 6.03 -2.72 3.06 0 0 Z " fill="#33443E" transform="translate(204,353)"/>
<path d="M0 0 C0 0.66 0 1.32 0 2 C-1.4562545 2.67119549 -2.91507867 3.33681807 -4.375 4 C-5.59316406 4.556875 -5.59316406 4.556875 -6.8359375 5.125 C-9 6 -9 6 -11 6 C-11 4.68 -11 3.36 -11 2 C-10.071875 1.855625 -9.14375 1.71125 -8.1875 1.5625 C-5.38271427 1.06753781 -2.83105141 0 0 0 Z " fill="#3D4D48" transform="translate(303,360)"/>
<path d="M0 0 C2 2 2 2 2.1953125 4.3828125 C2.17210937 5.28773438 2.14890625 6.19265625 2.125 7.125 C2.10695313 8.03507812 2.08890625 8.94515625 2.0703125 9.8828125 C2.03550781 10.93082031 2.03550781 10.93082031 2 12 C1.34 12 0.68 12 0 12 C-0.92844389 7.66726186 -0.92844389 4.33273814 0 0 Z " fill="#56645E" transform="translate(260,361)"/>
<path d="M0 0 C0 0.66 0 1.32 0 2 C-2.64738916 3.4606285 -3.89448334 4 -7 4 C-7.33 4.66 -7.66 5.32 -8 6 C-8.33 5.01 -8.66 4.02 -9 3 C-2.25 0 -2.25 0 0 0 Z " fill="#384943" transform="translate(297,348)"/>
<path d="M0 0 C0.33 0 0.66 0 1 0 C1 1.98 1 3.96 1 6 C-0.65 5.67 -2.3 5.34 -4 5 C-2.69254251 3.31295807 -1.35827971 1.64639965 0 0 Z " fill="#CFD2CD" transform="translate(206,354)"/>
</svg>
